<?xml version="1.0" encoding="utf-8" standalone="no"?>
<!DOCTYPE svg PUBLIC "-//W3C//DTD SVG 1.1//EN"
  "http://www.w3.org/Graphics/SVG/1.1/DTD/svg11.dtd">
<svg xmlns:xlink="http://www.w3.org/1999/xlink" width="460.8pt" height="345.6pt" viewBox="0 0 460.8 345.6" xmlns="http://www.w3.org/2000/svg" version="1.1">
 <metadata>
  <rdf:RDF xmlns:dc="http://purl.org/dc/elements/1.1/" xmlns:cc="http://creativecommons.org/ns#" xmlns:rdf="http://www.w3.org/1999/02/22-rdf-syntax-ns#">
   <cc:Work>
    <dc:type rdf:resource="http://purl.org/dc/dcmitype/StillImage"/>
    <dc:date>2024-08-12T01:25:16.003114</dc:date>
    <dc:format>image/svg+xml</dc:format>
    <dc:creator>
     <cc:Agent>
      <dc:title>Matplotlib v3.9.0, https://matplotlib.org/</dc:title>
     </cc:Agent>
    </dc:creator>
   </cc:Work>
  </rdf:RDF>
 </metadata>
 <defs>
  <style type="text/css">*{stroke-linejoin: round; stroke-linecap: butt}</style>
 </defs>
 <g id="figure_1">
  <g id="patch_1">
   <path d="M 0 345.6 
L 460.8 345.6 
L 460.8 0 
L 0 0 
z
" style="fill: #ffffff"/>
  </g>
  <g id="axes_1">
   <g id="patch_2">
    <path d="M 57.6 276.48 
L 414.72 276.48 
L 414.72 41.472 
L 57.6 41.472 
z
" style="fill: #ffffff"/>
   </g>
   <g id="PolyCollection_1">
    <path d="M 73.832727 258.143842 
L 73.832727 262.199843 
L 75.464157 253.308276 
L 77.095587 243.060651 
L 78.727017 232.931207 
L 80.358447 227.349739 
L 81.989877 232.027771 
L 83.621307 235.344004 
L 85.252736 235.304015 
L 86.884166 236.834674 
L 88.515596 235.848213 
L 90.147026 236.080763 
L 91.778456 236.348329 
L 93.409886 237.128519 
L 95.041316 237.971017 
L 96.672746 238.289509 
L 98.304175 238.135873 
L 99.935605 238.210733 
L 101.567035 238.088526 
L 103.198465 238.082589 
L 104.829895 237.587811 
L 106.461325 237.23532 
L 108.092755 237.248236 
L 109.724185 236.721567 
L 111.355614 236.913601 
L 112.987044 236.664221 
L 114.618474 236.408462 
L 116.249904 236.21181 
L 117.881334 236.07545 
L 119.512764 236.015553 
L 121.144194 235.865473 
L 122.775624 236.111382 
L 124.407053 235.493974 
L 126.038483 235.845167 
L 127.669913 235.812989 
L 129.301343 235.804445 
L 130.932773 235.660986 
L 132.564203 235.379084 
L 134.195633 235.15763 
L 135.827063 234.322555 
L 137.458492 234.355008 
L 139.089922 234.022483 
L 140.721352 233.925132 
L 142.352782 233.757206 
L 143.984212 233.582176 
L 145.615642 233.441493 
L 147.247072 233.085564 
L 148.878502 233.083058 
L 150.509931 232.624076 
L 152.141361 232.714351 
L 153.772791 232.498262 
L 155.404221 232.207037 
L 157.035651 231.972917 
L 158.667081 231.762843 
L 160.298511 231.756512 
L 161.929941 231.393252 
L 163.56137 231.538576 
L 165.1928 231.423329 
L 166.82423 231.065108 
L 168.45566 230.500205 
L 170.08709 230.060779 
L 171.71852 230.052081 
L 173.34995 229.589409 
L 174.98138 229.460612 
L 176.61281 228.823461 
L 178.244239 228.655222 
L 179.875669 228.491996 
L 181.507099 228.16513 
L 183.138529 227.881575 
L 184.769959 227.84876 
L 186.401389 227.854872 
L 188.032819 227.64864 
L 189.664249 227.218896 
L 191.295678 226.630117 
L 192.927108 226.172442 
L 194.558538 226.08595 
L 196.189968 226.293378 
L 197.821398 226.338069 
L 199.452828 225.815686 
L 201.084258 225.381049 
L 202.715688 224.933079 
L 204.347117 224.685185 
L 205.978547 224.546519 
L 207.609977 224.338604 
L 209.241407 223.9874 
L 210.872837 223.515955 
L 212.504267 223.078922 
L 214.135697 222.828867 
L 215.767127 222.668542 
L 217.398556 222.305233 
L 219.029986 221.971954 
L 220.661416 221.843925 
L 222.292846 221.585057 
L 223.924276 220.965742 
L 225.555706 220.729587 
L 227.187136 220.582087 
L 228.818566 220.176755 
L 230.449995 219.791586 
L 232.081425 219.736779 
L 233.712855 219.912332 
L 235.344285 219.562973 
L 236.975715 219.081599 
L 238.607145 218.851836 
L 240.238575 218.874116 
L 241.870005 218.922497 
L 243.501434 218.812181 
L 245.132864 218.380626 
L 246.764294 217.75657 
L 248.395724 217.459127 
L 250.027154 217.339804 
L 251.658584 217.176982 
L 253.290014 216.746684 
L 254.921444 216.448856 
L 256.552873 216.153567 
L 258.184303 215.77783 
L 259.815733 215.662385 
L 261.447163 215.217021 
L 263.078593 214.500025 
L 264.710023 214.47749 
L 266.341453 214.707549 
L 267.972883 214.771393 
L 269.604312 214.640056 
L 271.235742 214.409615 
L 272.867172 214.149468 
L 274.498602 215.249996 
L 276.130032 214.922929 
L 277.761462 214.015701 
L 279.392892 213.489492 
L 281.024322 213.203726 
L 282.655751 213.401887 
L 284.287181 214.731107 
L 285.918611 214.191168 
L 287.550041 212.377974 
L 289.181471 211.530296 
L 290.812901 210.781901 
L 292.444331 210.23912 
L 294.075761 209.914936 
L 295.70719 209.927506 
L 297.33862 210.261691 
L 298.97005 209.591901 
L 300.60148 208.889465 
L 302.23291 207.942058 
L 303.86434 207.184653 
L 305.49577 206.227654 
L 307.1272 205.157069 
L 308.75863 204.520319 
L 310.390059 204.13911 
L 312.021489 203.547048 
L 313.652919 202.629503 
L 315.284349 202.188843 
L 316.915779 201.869019 
L 318.547209 201.534097 
L 320.178639 201.125969 
L 321.810069 200.503496 
L 323.441498 199.738286 
L 325.072928 198.374426 
L 326.704358 197.731887 
L 328.335788 196.983375 
L 329.967218 196.512456 
L 331.598648 196.343979 
L 333.230078 196.342192 
L 334.861508 196.466305 
L 336.492937 195.467498 
L 338.124367 194.448433 
L 339.755797 194.023884 
L 341.387227 193.886024 
L 343.018657 193.557462 
L 344.650087 192.84671 
L 346.281517 192.581025 
L 347.912947 192.90125 
L 349.544376 193.050405 
L 351.175806 192.119362 
L 352.807236 191.721844 
L 354.438666 191.892027 
L 356.070096 191.638088 
L 357.701526 191.221498 
L 359.332956 191.302013 
L 360.964386 190.753263 
L 362.595815 190.429322 
L 364.227245 190.103546 
L 365.858675 190.075922 
L 367.490105 189.892426 
L 369.121535 189.666849 
L 370.752965 189.601349 
L 372.384395 188.967364 
L 374.015825 188.828633 
L 375.647254 188.87002 
L 377.278684 188.793631 
L 378.910114 190.382846 
L 380.541544 190.762752 
L 382.172974 189.093206 
L 383.804404 188.323804 
L 385.435834 188.459773 
L 387.067264 188.263899 
L 388.698693 187.887023 
L 390.330123 187.854205 
L 391.961553 182.197679 
L 393.592983 174.12163 
L 395.224413 160.273734 
L 396.855843 139.767409 
L 398.487273 119.274933 
L 398.487273 85.798949 
L 398.487273 85.798949 
L 396.855843 111.240238 
L 395.224413 136.862323 
L 393.592983 160.246882 
L 391.961553 178.121918 
L 390.330123 185.448706 
L 388.698693 187.441318 
L 387.067264 187.233237 
L 385.435834 187.475586 
L 383.804404 187.42664 
L 382.172974 187.748997 
L 380.541544 187.748694 
L 378.910114 188.153874 
L 377.278684 188.578216 
L 375.647254 188.479951 
L 374.015825 188.5085 
L 372.384395 188.708396 
L 370.752965 188.805666 
L 369.121535 189.242234 
L 367.490105 189.383494 
L 365.858675 189.48543 
L 364.227245 189.671045 
L 362.595815 189.564611 
L 360.964386 189.579298 
L 359.332956 189.794962 
L 357.701526 190.196891 
L 356.070096 190.59273 
L 354.438666 190.949897 
L 352.807236 191.392213 
L 351.175806 191.567863 
L 349.544376 191.870603 
L 347.912947 192.557579 
L 346.281517 192.383392 
L 344.650087 192.498533 
L 343.018657 193.067045 
L 341.387227 193.740778 
L 339.755797 193.720764 
L 338.124367 193.344631 
L 336.492937 193.897689 
L 334.861508 194.671694 
L 333.230078 195.806162 
L 331.598648 195.703742 
L 329.967218 195.546895 
L 328.335788 195.712125 
L 326.704358 196.074484 
L 325.072928 196.753006 
L 323.441498 196.564381 
L 321.810069 197.466629 
L 320.178639 197.74104 
L 318.547209 198.347066 
L 316.915779 198.66568 
L 315.284349 198.874177 
L 313.652919 199.563502 
L 312.021489 200.185092 
L 310.390059 200.559113 
L 308.75863 200.976113 
L 307.1272 201.400206 
L 305.49577 201.876643 
L 303.86434 202.905523 
L 302.23291 204.108783 
L 300.60148 204.787211 
L 298.97005 206.31527 
L 297.33862 207.308736 
L 295.70719 208.257999 
L 294.075761 208.748631 
L 292.444331 209.251383 
L 290.812901 209.961269 
L 289.181471 210.725067 
L 287.550041 211.54174 
L 285.918611 211.919661 
L 284.287181 212.435557 
L 282.655751 212.562254 
L 281.024322 212.370665 
L 279.392892 212.670732 
L 277.761462 213.420333 
L 276.130032 214.065482 
L 274.498602 214.143075 
L 272.867172 213.570387 
L 271.235742 213.759574 
L 269.604312 213.989003 
L 267.972883 214.04379 
L 266.341453 214.028418 
L 264.710023 214.003269 
L 263.078593 213.835887 
L 261.447163 213.827866 
L 259.815733 214.48802 
L 258.184303 214.996807 
L 256.552873 215.381916 
L 254.921444 215.744768 
L 253.290014 216.149467 
L 251.658584 216.522732 
L 250.027154 216.77499 
L 248.395724 216.775183 
L 246.764294 216.889136 
L 245.132864 217.218497 
L 243.501434 217.441744 
L 241.870005 217.621926 
L 240.238575 217.689996 
L 238.607145 217.622813 
L 236.975715 217.620394 
L 235.344285 217.467687 
L 233.712855 217.843078 
L 232.081425 218.135267 
L 230.449995 218.340274 
L 228.818566 218.635122 
L 227.187136 219.027078 
L 225.555706 219.367715 
L 223.924276 219.450613 
L 222.292846 220.006533 
L 220.661416 220.662108 
L 219.029986 220.892395 
L 217.398556 221.094633 
L 215.767127 221.459758 
L 214.135697 221.847442 
L 212.504267 222.064395 
L 210.872837 222.663162 
L 209.241407 223.053426 
L 207.609977 223.362551 
L 205.978547 223.451582 
L 204.347117 223.737322 
L 202.715688 224.095584 
L 201.084258 224.166032 
L 199.452828 224.409916 
L 197.821398 224.315796 
L 196.189968 224.614832 
L 194.558538 224.732048 
L 192.927108 225.010722 
L 191.295678 225.432717 
L 189.664249 225.960741 
L 188.032819 226.617573 
L 186.401389 226.905695 
L 184.769959 227.200637 
L 183.138529 227.249398 
L 181.507099 227.358298 
L 179.875669 227.525441 
L 178.244239 227.718401 
L 176.61281 227.987694 
L 174.98138 228.406955 
L 173.34995 229.035088 
L 171.71852 229.108221 
L 170.08709 228.913054 
L 168.45566 228.919507 
L 166.82423 229.329265 
L 165.1928 229.754688 
L 163.56137 229.778357 
L 161.929941 229.730707 
L 160.298511 229.706074 
L 158.667081 230.001985 
L 157.035651 230.166693 
L 155.404221 230.385879 
L 153.772791 230.605703 
L 152.141361 230.806192 
L 150.509931 231.132906 
L 148.878502 231.358721 
L 147.247072 231.834276 
L 145.615642 231.930675 
L 143.984212 232.358555 
L 142.352782 232.711672 
L 140.721352 232.781164 
L 139.089922 232.712944 
L 137.458492 232.724516 
L 135.827063 233.145394 
L 134.195633 233.64485 
L 132.564203 234.032142 
L 130.932773 234.290074 
L 129.301343 234.485818 
L 127.669913 234.524079 
L 126.038483 234.430934 
L 124.407053 234.627033 
L 122.775624 234.248656 
L 121.144194 234.381094 
L 119.512764 234.790538 
L 117.881334 235.257522 
L 116.249904 235.748042 
L 114.618474 236.192432 
L 112.987044 235.964595 
L 111.355614 236.160405 
L 109.724185 236.282721 
L 108.092755 236.120874 
L 106.461325 236.529872 
L 104.829895 236.843236 
L 103.198465 236.97482 
L 101.567035 237.218219 
L 99.935605 237.367455 
L 98.304175 237.392517 
L 96.672746 236.704631 
L 95.041316 235.080996 
L 93.409886 233.610215 
L 91.778456 232.150009 
L 90.147026 231.807965 
L 88.515596 233.804117 
L 86.884166 232.818231 
L 85.252736 235.085902 
L 83.621307 233.007818 
L 81.989877 228.348007 
L 80.358447 225.455117 
L 78.727017 224.491054 
L 77.095587 233.879127 
L 75.464157 246.966775 
L 73.832727 258.143842 
z
" clip-path="url(#pa44280824d)" style="fill: #1f77b4; fill-opacity: 0.2"/>
   </g>
   <g id="PolyCollection_2">
    <path d="M 73.832727 261.958184 
L 73.832727 265.797818 
L 75.464157 260.647659 
L 77.095587 253.940083 
L 78.727017 246.301727 
L 80.358447 240.342723 
L 81.989877 238.770649 
L 83.621307 240.179473 
L 85.252736 241.328079 
L 86.884166 241.51507 
L 88.515596 243.52526 
L 90.147026 242.753324 
L 91.778456 240.205852 
L 93.409886 237.658358 
L 95.041316 237.784548 
L 96.672746 237.68097 
L 98.304175 237.718676 
L 99.935605 237.182907 
L 101.567035 236.611942 
L 103.198465 236.598846 
L 104.829895 236.333839 
L 106.461325 236.068503 
L 108.092755 235.118585 
L 109.724185 235.718725 
L 111.355614 236.738508 
L 112.987044 236.032079 
L 114.618474 235.873486 
L 116.249904 236.34686 
L 117.881334 235.628765 
L 119.512764 234.837935 
L 121.144194 235.806371 
L 122.775624 236.319758 
L 124.407053 235.893177 
L 126.038483 233.871485 
L 127.669913 233.213849 
L 129.301343 232.552959 
L 130.932773 232.585696 
L 132.564203 233.094598 
L 134.195633 232.669705 
L 135.827063 232.675104 
L 137.458492 231.784453 
L 139.089922 231.475409 
L 140.721352 231.241479 
L 142.352782 231.16646 
L 143.984212 230.617482 
L 145.615642 229.783251 
L 147.247072 229.875091 
L 148.878502 229.614342 
L 150.509931 229.577217 
L 152.141361 229.098296 
L 153.772791 228.483954 
L 155.404221 227.982083 
L 157.035651 227.626317 
L 158.667081 227.284057 
L 160.298511 226.647207 
L 161.929941 226.771335 
L 163.56137 226.882697 
L 165.1928 226.28379 
L 166.82423 225.811828 
L 168.45566 225.607904 
L 170.08709 225.504175 
L 171.71852 225.366 
L 173.34995 225.42315 
L 174.98138 224.833055 
L 176.61281 224.749157 
L 178.244239 224.689861 
L 179.875669 224.620705 
L 181.507099 224.459877 
L 183.138529 224.091928 
L 184.769959 223.445588 
L 186.401389 223.463754 
L 188.032819 222.613541 
L 189.664249 222.166369 
L 191.295678 222.150923 
L 192.927108 222.311486 
L 194.558538 222.315371 
L 196.189968 222.116666 
L 197.821398 222.082028 
L 199.452828 221.597516 
L 201.084258 221.558976 
L 202.715688 221.10696 
L 204.347117 220.234459 
L 205.978547 219.862275 
L 207.609977 220.094295 
L 209.241407 220.105504 
L 210.872837 219.388593 
L 212.504267 218.558718 
L 214.135697 218.703385 
L 215.767127 218.683491 
L 217.398556 218.392667 
L 219.029986 217.89711 
L 220.661416 217.349149 
L 222.292846 216.996794 
L 223.924276 216.870173 
L 225.555706 216.665774 
L 227.187136 216.473855 
L 228.818566 216.427139 
L 230.449995 216.710568 
L 232.081425 216.371045 
L 233.712855 215.61911 
L 235.344285 215.282429 
L 236.975715 215.191714 
L 238.607145 214.612857 
L 240.238575 214.401808 
L 241.870005 214.360983 
L 243.501434 214.450444 
L 245.132864 214.638528 
L 246.764294 214.962601 
L 248.395724 214.658507 
L 250.027154 214.193382 
L 251.658584 213.5844 
L 253.290014 212.944701 
L 254.921444 213.022312 
L 256.552873 212.965183 
L 258.184303 212.149896 
L 259.815733 212.00059 
L 261.447163 212.420671 
L 263.078593 213.522211 
L 264.710023 213.798268 
L 266.341453 213.70837 
L 267.972883 212.953428 
L 269.604312 211.942727 
L 271.235742 211.227885 
L 272.867172 211.044642 
L 274.498602 211.67603 
L 276.130032 211.332124 
L 277.761462 210.263212 
L 279.392892 209.47378 
L 281.024322 208.98253 
L 282.655751 208.85707 
L 284.287181 208.814811 
L 285.918611 208.429763 
L 287.550041 207.27129 
L 289.181471 206.735212 
L 290.812901 206.421714 
L 292.444331 206.051095 
L 294.075761 205.257778 
L 295.70719 204.129204 
L 297.33862 203.777973 
L 298.97005 203.161662 
L 300.60148 202.912217 
L 302.23291 201.658969 
L 303.86434 200.88795 
L 305.49577 200.607978 
L 307.1272 200.51487 
L 308.75863 200.171923 
L 310.390059 198.573658 
L 312.021489 198.268534 
L 313.652919 198.693727 
L 315.284349 199.186237 
L 316.915779 198.748703 
L 318.547209 198.219482 
L 320.178639 198.334896 
L 321.810069 198.680329 
L 323.441498 199.28697 
L 325.072928 197.266561 
L 326.704358 196.966587 
L 328.335788 196.150384 
L 329.967218 195.530497 
L 331.598648 194.827203 
L 333.230078 193.828073 
L 334.861508 193.823891 
L 336.492937 193.521839 
L 338.124367 193.014616 
L 339.755797 192.746818 
L 341.387227 192.549903 
L 343.018657 192.336854 
L 344.650087 191.960682 
L 346.281517 191.449457 
L 347.912947 190.856271 
L 349.544376 190.309844 
L 351.175806 190.473442 
L 352.807236 190.518705 
L 354.438666 190.094969 
L 356.070096 189.597436 
L 357.701526 189.897402 
L 359.332956 189.949007 
L 360.964386 189.941703 
L 362.595815 189.208549 
L 364.227245 189.590116 
L 365.858675 189.618421 
L 367.490105 189.414353 
L 369.121535 189.08912 
L 370.752965 188.288433 
L 372.384395 188.252875 
L 374.015825 187.959916 
L 375.647254 187.769015 
L 377.278684 187.469674 
L 378.910114 187.304151 
L 380.541544 187.278556 
L 382.172974 187.376178 
L 383.804404 187.43226 
L 385.435834 187.245523 
L 387.067264 187.175633 
L 388.698693 188.391599 
L 390.330123 188.230465 
L 391.961553 189.516656 
L 393.592983 182.745153 
L 395.224413 163.538939 
L 396.855843 136.058874 
L 398.487273 104.951581 
L 398.487273 52.154182 
L 398.487273 52.154182 
L 396.855843 90.574993 
L 395.224413 127.993883 
L 393.592983 159.716098 
L 391.961553 179.964985 
L 390.330123 187.903856 
L 388.698693 186.34803 
L 387.067264 186.461472 
L 385.435834 186.321865 
L 383.804404 186.490277 
L 382.172974 186.694429 
L 380.541544 186.739835 
L 378.910114 186.906582 
L 377.278684 187.2106 
L 375.647254 187.139007 
L 374.015825 186.604355 
L 372.384395 186.889054 
L 370.752965 187.23484 
L 369.121535 187.505647 
L 367.490105 188.501013 
L 365.858675 189.098493 
L 364.227245 188.894503 
L 362.595815 188.405611 
L 360.964386 188.429388 
L 359.332956 189.268133 
L 357.701526 189.451861 
L 356.070096 189.503125 
L 354.438666 189.442549 
L 352.807236 189.740683 
L 351.175806 189.743748 
L 349.544376 189.463251 
L 347.912947 189.783311 
L 346.281517 190.047228 
L 344.650087 190.305772 
L 343.018657 190.874669 
L 341.387227 191.511815 
L 339.755797 191.711155 
L 338.124367 191.584519 
L 336.492937 192.087708 
L 334.861508 192.194001 
L 333.230078 192.562699 
L 331.598648 193.11111 
L 329.967218 193.9823 
L 328.335788 194.430855 
L 326.704358 194.237618 
L 325.072928 194.480126 
L 323.441498 194.700632 
L 321.810069 195.087067 
L 320.178639 195.141771 
L 318.547209 195.252983 
L 316.915779 195.179832 
L 315.284349 195.471595 
L 313.652919 196.537215 
L 312.021489 197.124641 
L 310.390059 197.53661 
L 308.75863 197.951799 
L 307.1272 198.723812 
L 305.49577 199.299955 
L 303.86434 199.708579 
L 302.23291 200.191666 
L 300.60148 200.836906 
L 298.97005 201.51929 
L 297.33862 202.267447 
L 295.70719 202.470328 
L 294.075761 202.850089 
L 292.444331 203.931656 
L 290.812901 204.875131 
L 289.181471 205.195883 
L 287.550041 205.551047 
L 285.918611 206.354619 
L 284.287181 207.461844 
L 282.655751 207.966789 
L 281.024322 208.33574 
L 279.392892 208.598197 
L 277.761462 208.997184 
L 276.130032 209.267697 
L 274.498602 209.300471 
L 272.867172 209.722707 
L 271.235742 210.368416 
L 269.604312 210.917409 
L 267.972883 211.867314 
L 266.341453 213.00729 
L 264.710023 213.534601 
L 263.078593 212.636114 
L 261.447163 212.091208 
L 259.815733 211.764318 
L 258.184303 211.620595 
L 256.552873 211.676516 
L 254.921444 212.158704 
L 253.290014 212.509139 
L 251.658584 212.622226 
L 250.027154 213.380245 
L 248.395724 214.299507 
L 246.764294 214.49443 
L 245.132864 214.275733 
L 243.501434 213.875278 
L 241.870005 213.985925 
L 240.238575 214.319593 
L 238.607145 214.44176 
L 236.975715 214.721099 
L 235.344285 215.01881 
L 233.712855 215.181088 
L 232.081425 215.29967 
L 230.449995 215.575571 
L 228.818566 216.049673 
L 227.187136 216.117866 
L 225.555706 216.372806 
L 223.924276 216.643993 
L 222.292846 216.467574 
L 220.661416 216.595699 
L 219.029986 216.792579 
L 217.398556 217.147907 
L 215.767127 217.481373 
L 214.135697 217.726819 
L 212.504267 218.193648 
L 210.872837 218.359735 
L 209.241407 218.551741 
L 207.609977 218.316607 
L 205.978547 218.444656 
L 204.347117 218.799409 
L 202.715688 219.061038 
L 201.084258 219.271596 
L 199.452828 219.374217 
L 197.821398 219.855788 
L 196.189968 220.054942 
L 194.558538 220.530901 
L 192.927108 220.702314 
L 191.295678 220.689132 
L 189.664249 220.719742 
L 188.032819 220.836468 
L 186.401389 221.553772 
L 184.769959 222.229274 
L 183.138529 222.654773 
L 181.507099 222.943928 
L 179.875669 223.177859 
L 178.244239 223.302253 
L 176.61281 223.246239 
L 174.98138 223.325379 
L 173.34995 223.840802 
L 171.71852 223.792081 
L 170.08709 223.975319 
L 168.45566 224.001929 
L 166.82423 224.285335 
L 165.1928 224.837487 
L 163.56137 225.129707 
L 161.929941 225.269681 
L 160.298511 225.403769 
L 158.667081 225.968463 
L 157.035651 226.591308 
L 155.404221 227.104274 
L 153.772791 227.391343 
L 152.141361 227.619654 
L 150.509931 228.163119 
L 148.878502 228.308376 
L 147.247072 228.49581 
L 145.615642 228.564047 
L 143.984212 228.947306 
L 142.352782 229.146048 
L 140.721352 229.321402 
L 139.089922 229.57083 
L 137.458492 229.372896 
L 135.827063 229.816835 
L 134.195633 229.876234 
L 132.564203 230.160604 
L 130.932773 230.568068 
L 129.301343 230.940641 
L 127.669913 231.456137 
L 126.038483 231.913058 
L 124.407053 231.271665 
L 122.775624 231.671733 
L 121.144194 231.945225 
L 119.512764 232.45195 
L 117.881334 232.269347 
L 116.249904 232.721248 
L 114.618474 233.906016 
L 112.987044 233.942758 
L 111.355614 233.994584 
L 109.724185 234.287315 
L 108.092755 234.893154 
L 106.461325 234.775066 
L 104.829895 235.701488 
L 103.198465 235.903661 
L 101.567035 235.661667 
L 99.935605 236.087182 
L 98.304175 235.780484 
L 96.672746 236.845183 
L 95.041316 235.886747 
L 93.409886 236.340683 
L 91.778456 236.310555 
L 90.147026 238.248367 
L 88.515596 241.234718 
L 86.884166 239.451445 
L 85.252736 238.951222 
L 83.621307 238.640254 
L 81.989877 238.123648 
L 80.358447 238.206022 
L 78.727017 241.097781 
L 77.095587 248.394479 
L 75.464157 256.581025 
L 73.832727 261.958184 
z
" clip-path="url(#pa44280824d)" style="fill: #ff7f0e; fill-opacity: 0.2"/>
   </g>
   <g id="matplotlib.axis_1">
    <g id="xtick_1">
     <g id="line2d_1">
      <path d="M 68.20288 276.48 
L 68.20288 41.472 
" clip-path="url(#pa44280824d)" style="fill: none; stroke-dasharray: 1.85,0.8; stroke-dashoffset: 0; stroke: #008000; stroke-width: 0.5"/>
     </g>
     <g id="line2d_2">
      <defs>
       <path id="mae74ce1cbd" d="M 0 0 
L 0 3.5 
" style="stroke: #000000; stroke-width: 0.8"/>
      </defs>
      <g>
       <use xlink:href="#mae74ce1cbd" x="68.20288" y="276.48" style="stroke: #000000; stroke-width: 0.8"/>
      </g>
     </g>
     <g id="text_1">
      <!-- 0 -->
      <g transform="translate(65.02163 291.078437) scale(0.1 -0.1)">
       <defs>
        <path id="DejaVuSans-30" d="M 2034 4250 
Q 1547 4250 1301 3770 
Q 1056 3291 1056 2328 
Q 1056 1369 1301 889 
Q 1547 409 2034 409 
Q 2525 409 2770 889 
Q 3016 1369 3016 2328 
Q 3016 3291 2770 3770 
Q 2525 4250 2034 4250 
z
M 2034 4750 
Q 2819 4750 3233 4129 
Q 3647 3509 3647 2328 
Q 3647 1150 3233 529 
Q 2819 -91 2034 -91 
Q 1250 -91 836 529 
Q 422 1150 422 2328 
Q 422 3509 836 4129 
Q 1250 4750 2034 4750 
z
" transform="scale(0.015625)"/>
       </defs>
       <use xlink:href="#DejaVuSans-30"/>
      </g>
     </g>
    </g>
    <g id="xtick_2">
     <g id="line2d_3">
      <path d="M 143.267514 276.48 
L 143.267514 41.472 
" clip-path="url(#pa44280824d)" style="fill: none; stroke-dasharray: 1.85,0.8; stroke-dashoffset: 0; stroke: #008000; stroke-width: 0.5"/>
     </g>
     <g id="line2d_4">
      <g>
       <use xlink:href="#mae74ce1cbd" x="143.267514" y="276.48" style="stroke: #000000; stroke-width: 0.8"/>
      </g>
     </g>
     <g id="text_2">
      <!-- 1 -->
      <g transform="translate(140.086264 291.078437) scale(0.1 -0.1)">
       <defs>
        <path id="DejaVuSans-31" d="M 794 531 
L 1825 531 
L 1825 4091 
L 703 3866 
L 703 4441 
L 1819 4666 
L 2450 4666 
L 2450 531 
L 3481 531 
L 3481 0 
L 794 0 
L 794 531 
z
" transform="scale(0.015625)"/>
       </defs>
       <use xlink:href="#DejaVuSans-31"/>
      </g>
     </g>
    </g>
    <g id="xtick_3">
     <g id="line2d_5">
      <path d="M 218.332149 276.48 
L 218.332149 41.472 
" clip-path="url(#pa44280824d)" style="fill: none; stroke-dasharray: 1.85,0.8; stroke-dashoffset: 0; stroke: #008000; stroke-width: 0.5"/>
     </g>
     <g id="line2d_6">
      <g>
       <use xlink:href="#mae74ce1cbd" x="218.332149" y="276.48" style="stroke: #000000; stroke-width: 0.8"/>
      </g>
     </g>
     <g id="text_3">
      <!-- 2 -->
      <g transform="translate(215.150899 291.078437) scale(0.1 -0.1)">
       <defs>
        <path id="DejaVuSans-32" d="M 1228 531 
L 3431 531 
L 3431 0 
L 469 0 
L 469 531 
Q 828 903 1448 1529 
Q 2069 2156 2228 2338 
Q 2531 2678 2651 2914 
Q 2772 3150 2772 3378 
Q 2772 3750 2511 3984 
Q 2250 4219 1831 4219 
Q 1534 4219 1204 4116 
Q 875 4013 500 3803 
L 500 4441 
Q 881 4594 1212 4672 
Q 1544 4750 1819 4750 
Q 2544 4750 2975 4387 
Q 3406 4025 3406 3419 
Q 3406 3131 3298 2873 
Q 3191 2616 2906 2266 
Q 2828 2175 2409 1742 
Q 1991 1309 1228 531 
z
" transform="scale(0.015625)"/>
       </defs>
       <use xlink:href="#DejaVuSans-32"/>
      </g>
     </g>
    </g>
    <g id="xtick_4">
     <g id="line2d_7">
      <path d="M 293.396784 276.48 
L 293.396784 41.472 
" clip-path="url(#pa44280824d)" style="fill: none; stroke-dasharray: 1.85,0.8; stroke-dashoffset: 0; stroke: #008000; stroke-width: 0.5"/>
     </g>
     <g id="line2d_8">
      <g>
       <use xlink:href="#mae74ce1cbd" x="293.396784" y="276.48" style="stroke: #000000; stroke-width: 0.8"/>
      </g>
     </g>
     <g id="text_4">
      <!-- 3 -->
      <g transform="translate(290.215534 291.078437) scale(0.1 -0.1)">
       <defs>
        <path id="DejaVuSans-33" d="M 2597 2516 
Q 3050 2419 3304 2112 
Q 3559 1806 3559 1356 
Q 3559 666 3084 287 
Q 2609 -91 1734 -91 
Q 1441 -91 1130 -33 
Q 819 25 488 141 
L 488 750 
Q 750 597 1062 519 
Q 1375 441 1716 441 
Q 2309 441 2620 675 
Q 2931 909 2931 1356 
Q 2931 1769 2642 2001 
Q 2353 2234 1838 2234 
L 1294 2234 
L 1294 2753 
L 1863 2753 
Q 2328 2753 2575 2939 
Q 2822 3125 2822 3475 
Q 2822 3834 2567 4026 
Q 2313 4219 1838 4219 
Q 1578 4219 1281 4162 
Q 984 4106 628 3988 
L 628 4550 
Q 988 4650 1302 4700 
Q 1616 4750 1894 4750 
Q 2613 4750 3031 4423 
Q 3450 4097 3450 3541 
Q 3450 3153 3228 2886 
Q 3006 2619 2597 2516 
z
" transform="scale(0.015625)"/>
       </defs>
       <use xlink:href="#DejaVuSans-33"/>
      </g>
     </g>
    </g>
    <g id="xtick_5">
     <g id="line2d_9">
      <path d="M 368.461419 276.48 
L 368.461419 41.472 
" clip-path="url(#pa44280824d)" style="fill: none; stroke-dasharray: 1.85,0.8; stroke-dashoffset: 0; stroke: #008000; stroke-width: 0.5"/>
     </g>
     <g id="line2d_10">
      <g>
       <use xlink:href="#mae74ce1cbd" x="368.461419" y="276.48" style="stroke: #000000; stroke-width: 0.8"/>
      </g>
     </g>
     <g id="text_5">
      <!-- 4 -->
      <g transform="translate(365.280169 291.078437) scale(0.1 -0.1)">
       <defs>
        <path id="DejaVuSans-34" d="M 2419 4116 
L 825 1625 
L 2419 1625 
L 2419 4116 
z
M 2253 4666 
L 3047 4666 
L 3047 1625 
L 3713 1625 
L 3713 1100 
L 3047 1100 
L 3047 0 
L 2419 0 
L 2419 1100 
L 313 1100 
L 313 1709 
L 2253 4666 
z
" transform="scale(0.015625)"/>
       </defs>
       <use xlink:href="#DejaVuSans-34"/>
      </g>
     </g>
    </g>
    <g id="text_6">
     <!-- travel, mm -->
     <g transform="translate(208.736562 304.756562) scale(0.1 -0.1)">
      <defs>
       <path id="DejaVuSans-74" d="M 1172 4494 
L 1172 3500 
L 2356 3500 
L 2356 3053 
L 1172 3053 
L 1172 1153 
Q 1172 725 1289 603 
Q 1406 481 1766 481 
L 2356 481 
L 2356 0 
L 1766 0 
Q 1100 0 847 248 
Q 594 497 594 1153 
L 594 3053 
L 172 3053 
L 172 3500 
L 594 3500 
L 594 4494 
L 1172 4494 
z
" transform="scale(0.015625)"/>
       <path id="DejaVuSans-72" d="M 2631 2963 
Q 2534 3019 2420 3045 
Q 2306 3072 2169 3072 
Q 1681 3072 1420 2755 
Q 1159 2438 1159 1844 
L 1159 0 
L 581 0 
L 581 3500 
L 1159 3500 
L 1159 2956 
Q 1341 3275 1631 3429 
Q 1922 3584 2338 3584 
Q 2397 3584 2469 3576 
Q 2541 3569 2628 3553 
L 2631 2963 
z
" transform="scale(0.015625)"/>
       <path id="DejaVuSans-61" d="M 2194 1759 
Q 1497 1759 1228 1600 
Q 959 1441 959 1056 
Q 959 750 1161 570 
Q 1363 391 1709 391 
Q 2188 391 2477 730 
Q 2766 1069 2766 1631 
L 2766 1759 
L 2194 1759 
z
M 3341 1997 
L 3341 0 
L 2766 0 
L 2766 531 
Q 2569 213 2275 61 
Q 1981 -91 1556 -91 
Q 1019 -91 701 211 
Q 384 513 384 1019 
Q 384 1609 779 1909 
Q 1175 2209 1959 2209 
L 2766 2209 
L 2766 2266 
Q 2766 2663 2505 2880 
Q 2244 3097 1772 3097 
Q 1472 3097 1187 3025 
Q 903 2953 641 2809 
L 641 3341 
Q 956 3463 1253 3523 
Q 1550 3584 1831 3584 
Q 2591 3584 2966 3190 
Q 3341 2797 3341 1997 
z
" transform="scale(0.015625)"/>
       <path id="DejaVuSans-76" d="M 191 3500 
L 800 3500 
L 1894 563 
L 2988 3500 
L 3597 3500 
L 2284 0 
L 1503 0 
L 191 3500 
z
" transform="scale(0.015625)"/>
       <path id="DejaVuSans-65" d="M 3597 1894 
L 3597 1613 
L 953 1613 
Q 991 1019 1311 708 
Q 1631 397 2203 397 
Q 2534 397 2845 478 
Q 3156 559 3463 722 
L 3463 178 
Q 3153 47 2828 -22 
Q 2503 -91 2169 -91 
Q 1331 -91 842 396 
Q 353 884 353 1716 
Q 353 2575 817 3079 
Q 1281 3584 2069 3584 
Q 2775 3584 3186 3129 
Q 3597 2675 3597 1894 
z
M 3022 2063 
Q 3016 2534 2758 2815 
Q 2500 3097 2075 3097 
Q 1594 3097 1305 2825 
Q 1016 2553 972 2059 
L 3022 2063 
z
" transform="scale(0.015625)"/>
       <path id="DejaVuSans-6c" d="M 603 4863 
L 1178 4863 
L 1178 0 
L 603 0 
L 603 4863 
z
" transform="scale(0.015625)"/>
       <path id="DejaVuSans-2c" d="M 750 794 
L 1409 794 
L 1409 256 
L 897 -744 
L 494 -744 
L 750 256 
L 750 794 
z
" transform="scale(0.015625)"/>
       <path id="DejaVuSans-20" transform="scale(0.015625)"/>
       <path id="DejaVuSans-6d" d="M 3328 2828 
Q 3544 3216 3844 3400 
Q 4144 3584 4550 3584 
Q 5097 3584 5394 3201 
Q 5691 2819 5691 2113 
L 5691 0 
L 5113 0 
L 5113 2094 
Q 5113 2597 4934 2840 
Q 4756 3084 4391 3084 
Q 3944 3084 3684 2787 
Q 3425 2491 3425 1978 
L 3425 0 
L 2847 0 
L 2847 2094 
Q 2847 2600 2669 2842 
Q 2491 3084 2119 3084 
Q 1678 3084 1418 2786 
Q 1159 2488 1159 1978 
L 1159 0 
L 581 0 
L 581 3500 
L 1159 3500 
L 1159 2956 
Q 1356 3278 1631 3431 
Q 1906 3584 2284 3584 
Q 2666 3584 2933 3390 
Q 3200 3197 3328 2828 
z
" transform="scale(0.015625)"/>
      </defs>
      <use xlink:href="#DejaVuSans-74"/>
      <use xlink:href="#DejaVuSans-72" x="39.208984"/>
      <use xlink:href="#DejaVuSans-61" x="80.322266"/>
      <use xlink:href="#DejaVuSans-76" x="141.601562"/>
      <use xlink:href="#DejaVuSans-65" x="200.78125"/>
      <use xlink:href="#DejaVuSans-6c" x="262.304688"/>
      <use xlink:href="#DejaVuSans-2c" x="290.087891"/>
      <use xlink:href="#DejaVuSans-20" x="321.875"/>
      <use xlink:href="#DejaVuSans-6d" x="353.662109"/>
      <use xlink:href="#DejaVuSans-6d" x="451.074219"/>
     </g>
    </g>
   </g>
   <g id="matplotlib.axis_2">
    <g id="ytick_1">
     <g id="line2d_11">
      <path d="M 57.6 271.198667 
L 414.72 271.198667 
" clip-path="url(#pa44280824d)" style="fill: none; stroke-dasharray: 1.85,0.8; stroke-dashoffset: 0; stroke: #008000; stroke-width: 0.5"/>
     </g>
     <g id="line2d_12">
      <defs>
       <path id="m6e2df103b7" d="M 0 0 
L -3.5 0 
" style="stroke: #000000; stroke-width: 0.8"/>
      </defs>
      <g>
       <use xlink:href="#m6e2df103b7" x="57.6" y="271.198667" style="stroke: #000000; stroke-width: 0.8"/>
      </g>
     </g>
     <g id="text_7">
      <!-- 0 -->
      <g transform="translate(44.2375 274.997886) scale(0.1 -0.1)">
       <use xlink:href="#DejaVuSans-30"/>
      </g>
     </g>
    </g>
    <g id="ytick_2">
     <g id="line2d_13">
      <path d="M 57.6 236.829344 
L 414.72 236.829344 
" clip-path="url(#pa44280824d)" style="fill: none; stroke-dasharray: 1.85,0.8; stroke-dashoffset: 0; stroke: #008000; stroke-width: 0.5"/>
     </g>
     <g id="line2d_14">
      <g>
       <use xlink:href="#m6e2df103b7" x="57.6" y="236.829344" style="stroke: #000000; stroke-width: 0.8"/>
      </g>
     </g>
     <g id="text_8">
      <!-- 20 -->
      <g transform="translate(37.875 240.628562) scale(0.1 -0.1)">
       <use xlink:href="#DejaVuSans-32"/>
       <use xlink:href="#DejaVuSans-30" x="63.623047"/>
      </g>
     </g>
    </g>
    <g id="ytick_3">
     <g id="line2d_15">
      <path d="M 57.6 202.46002 
L 414.72 202.46002 
" clip-path="url(#pa44280824d)" style="fill: none; stroke-dasharray: 1.85,0.8; stroke-dashoffset: 0; stroke: #008000; stroke-width: 0.5"/>
     </g>
     <g id="line2d_16">
      <g>
       <use xlink:href="#m6e2df103b7" x="57.6" y="202.46002" style="stroke: #000000; stroke-width: 0.8"/>
      </g>
     </g>
     <g id="text_9">
      <!-- 40 -->
      <g transform="translate(37.875 206.259239) scale(0.1 -0.1)">
       <use xlink:href="#DejaVuSans-34"/>
       <use xlink:href="#DejaVuSans-30" x="63.623047"/>
      </g>
     </g>
    </g>
    <g id="ytick_4">
     <g id="line2d_17">
      <path d="M 57.6 168.090697 
L 414.72 168.090697 
" clip-path="url(#pa44280824d)" style="fill: none; stroke-dasharray: 1.85,0.8; stroke-dashoffset: 0; stroke: #008000; stroke-width: 0.5"/>
     </g>
     <g id="line2d_18">
      <g>
       <use xlink:href="#m6e2df103b7" x="57.6" y="168.090697" style="stroke: #000000; stroke-width: 0.8"/>
      </g>
     </g>
     <g id="text_10">
      <!-- 60 -->
      <g transform="translate(37.875 171.889916) scale(0.1 -0.1)">
       <defs>
        <path id="DejaVuSans-36" d="M 2113 2584 
Q 1688 2584 1439 2293 
Q 1191 2003 1191 1497 
Q 1191 994 1439 701 
Q 1688 409 2113 409 
Q 2538 409 2786 701 
Q 3034 994 3034 1497 
Q 3034 2003 2786 2293 
Q 2538 2584 2113 2584 
z
M 3366 4563 
L 3366 3988 
Q 3128 4100 2886 4159 
Q 2644 4219 2406 4219 
Q 1781 4219 1451 3797 
Q 1122 3375 1075 2522 
Q 1259 2794 1537 2939 
Q 1816 3084 2150 3084 
Q 2853 3084 3261 2657 
Q 3669 2231 3669 1497 
Q 3669 778 3244 343 
Q 2819 -91 2113 -91 
Q 1303 -91 875 529 
Q 447 1150 447 2328 
Q 447 3434 972 4092 
Q 1497 4750 2381 4750 
Q 2619 4750 2861 4703 
Q 3103 4656 3366 4563 
z
" transform="scale(0.015625)"/>
       </defs>
       <use xlink:href="#DejaVuSans-36"/>
       <use xlink:href="#DejaVuSans-30" x="63.623047"/>
      </g>
     </g>
    </g>
    <g id="ytick_5">
     <g id="line2d_19">
      <path d="M 57.6 133.721373 
L 414.72 133.721373 
" clip-path="url(#pa44280824d)" style="fill: none; stroke-dasharray: 1.85,0.8; stroke-dashoffset: 0; stroke: #008000; stroke-width: 0.5"/>
     </g>
     <g id="line2d_20">
      <g>
       <use xlink:href="#m6e2df103b7" x="57.6" y="133.721373" style="stroke: #000000; stroke-width: 0.8"/>
      </g>
     </g>
     <g id="text_11">
      <!-- 80 -->
      <g transform="translate(37.875 137.520592) scale(0.1 -0.1)">
       <defs>
        <path id="DejaVuSans-38" d="M 2034 2216 
Q 1584 2216 1326 1975 
Q 1069 1734 1069 1313 
Q 1069 891 1326 650 
Q 1584 409 2034 409 
Q 2484 409 2743 651 
Q 3003 894 3003 1313 
Q 3003 1734 2745 1975 
Q 2488 2216 2034 2216 
z
M 1403 2484 
Q 997 2584 770 2862 
Q 544 3141 544 3541 
Q 544 4100 942 4425 
Q 1341 4750 2034 4750 
Q 2731 4750 3128 4425 
Q 3525 4100 3525 3541 
Q 3525 3141 3298 2862 
Q 3072 2584 2669 2484 
Q 3125 2378 3379 2068 
Q 3634 1759 3634 1313 
Q 3634 634 3220 271 
Q 2806 -91 2034 -91 
Q 1263 -91 848 271 
Q 434 634 434 1313 
Q 434 1759 690 2068 
Q 947 2378 1403 2484 
z
M 1172 3481 
Q 1172 3119 1398 2916 
Q 1625 2713 2034 2713 
Q 2441 2713 2670 2916 
Q 2900 3119 2900 3481 
Q 2900 3844 2670 4047 
Q 2441 4250 2034 4250 
Q 1625 4250 1398 4047 
Q 1172 3844 1172 3481 
z
" transform="scale(0.015625)"/>
       </defs>
       <use xlink:href="#DejaVuSans-38"/>
       <use xlink:href="#DejaVuSans-30" x="63.623047"/>
      </g>
     </g>
    </g>
    <g id="ytick_6">
     <g id="line2d_21">
      <path d="M 57.6 99.35205 
L 414.72 99.35205 
" clip-path="url(#pa44280824d)" style="fill: none; stroke-dasharray: 1.85,0.8; stroke-dashoffset: 0; stroke: #008000; stroke-width: 0.5"/>
     </g>
     <g id="line2d_22">
      <g>
       <use xlink:href="#m6e2df103b7" x="57.6" y="99.35205" style="stroke: #000000; stroke-width: 0.8"/>
      </g>
     </g>
     <g id="text_12">
      <!-- 100 -->
      <g transform="translate(31.5125 103.151269) scale(0.1 -0.1)">
       <use xlink:href="#DejaVuSans-31"/>
       <use xlink:href="#DejaVuSans-30" x="63.623047"/>
       <use xlink:href="#DejaVuSans-30" x="127.246094"/>
      </g>
     </g>
    </g>
    <g id="ytick_7">
     <g id="line2d_23">
      <path d="M 57.6 64.982727 
L 414.72 64.982727 
" clip-path="url(#pa44280824d)" style="fill: none; stroke-dasharray: 1.85,0.8; stroke-dashoffset: 0; stroke: #008000; stroke-width: 0.5"/>
     </g>
     <g id="line2d_24">
      <g>
       <use xlink:href="#m6e2df103b7" x="57.6" y="64.982727" style="stroke: #000000; stroke-width: 0.8"/>
      </g>
     </g>
     <g id="text_13">
      <!-- 120 -->
      <g transform="translate(31.5125 68.781945) scale(0.1 -0.1)">
       <use xlink:href="#DejaVuSans-31"/>
       <use xlink:href="#DejaVuSans-32" x="63.623047"/>
       <use xlink:href="#DejaVuSans-30" x="127.246094"/>
      </g>
     </g>
    </g>
    <g id="text_14">
     <!-- weight, g -->
     <g transform="translate(25.432812 182.186156) rotate(-90) scale(0.1 -0.1)">
      <defs>
       <path id="DejaVuSans-77" d="M 269 3500 
L 844 3500 
L 1563 769 
L 2278 3500 
L 2956 3500 
L 3675 769 
L 4391 3500 
L 4966 3500 
L 4050 0 
L 3372 0 
L 2619 2869 
L 1863 0 
L 1184 0 
L 269 3500 
z
" transform="scale(0.015625)"/>
       <path id="DejaVuSans-69" d="M 603 3500 
L 1178 3500 
L 1178 0 
L 603 0 
L 603 3500 
z
M 603 4863 
L 1178 4863 
L 1178 4134 
L 603 4134 
L 603 4863 
z
" transform="scale(0.015625)"/>
       <path id="DejaVuSans-67" d="M 2906 1791 
Q 2906 2416 2648 2759 
Q 2391 3103 1925 3103 
Q 1463 3103 1205 2759 
Q 947 2416 947 1791 
Q 947 1169 1205 825 
Q 1463 481 1925 481 
Q 2391 481 2648 825 
Q 2906 1169 2906 1791 
z
M 3481 434 
Q 3481 -459 3084 -895 
Q 2688 -1331 1869 -1331 
Q 1566 -1331 1297 -1286 
Q 1028 -1241 775 -1147 
L 775 -588 
Q 1028 -725 1275 -790 
Q 1522 -856 1778 -856 
Q 2344 -856 2625 -561 
Q 2906 -266 2906 331 
L 2906 616 
Q 2728 306 2450 153 
Q 2172 0 1784 0 
Q 1141 0 747 490 
Q 353 981 353 1791 
Q 353 2603 747 3093 
Q 1141 3584 1784 3584 
Q 2172 3584 2450 3431 
Q 2728 3278 2906 2969 
L 2906 3500 
L 3481 3500 
L 3481 434 
z
" transform="scale(0.015625)"/>
       <path id="DejaVuSans-68" d="M 3513 2113 
L 3513 0 
L 2938 0 
L 2938 2094 
Q 2938 2591 2744 2837 
Q 2550 3084 2163 3084 
Q 1697 3084 1428 2787 
Q 1159 2491 1159 1978 
L 1159 0 
L 581 0 
L 581 4863 
L 1159 4863 
L 1159 2956 
Q 1366 3272 1645 3428 
Q 1925 3584 2291 3584 
Q 2894 3584 3203 3211 
Q 3513 2838 3513 2113 
z
" transform="scale(0.015625)"/>
      </defs>
      <use xlink:href="#DejaVuSans-77"/>
      <use xlink:href="#DejaVuSans-65" x="81.787109"/>
      <use xlink:href="#DejaVuSans-69" x="143.310547"/>
      <use xlink:href="#DejaVuSans-67" x="171.09375"/>
      <use xlink:href="#DejaVuSans-68" x="234.570312"/>
      <use xlink:href="#DejaVuSans-74" x="297.949219"/>
      <use xlink:href="#DejaVuSans-2c" x="337.158203"/>
      <use xlink:href="#DejaVuSans-20" x="368.945312"/>
      <use xlink:href="#DejaVuSans-67" x="400.732422"/>
     </g>
    </g>
   </g>
   <g id="line2d_25">
    <path d="M 73.832727 260.171842 
L 75.464157 250.137525 
L 77.095587 238.469889 
L 78.727017 228.711131 
L 80.358447 226.402428 
L 83.621307 234.175911 
L 85.252736 235.194958 
L 86.884166 234.826452 
L 88.515596 234.826165 
L 90.147026 233.944364 
L 91.778456 234.249169 
L 96.672746 237.49707 
L 98.304175 237.764195 
L 99.935605 237.789094 
L 103.198465 237.528705 
L 108.092755 236.684555 
L 109.724185 236.502144 
L 111.355614 236.537003 
L 112.987044 236.314408 
L 114.618474 236.300447 
L 121.144194 235.123284 
L 122.775624 235.180019 
L 124.407053 235.060504 
L 127.669913 235.168534 
L 129.301343 235.145132 
L 132.564203 234.705613 
L 134.195633 234.40124 
L 135.827063 233.733974 
L 139.089922 233.367714 
L 142.352782 233.234439 
L 152.141361 231.760271 
L 161.929941 230.561979 
L 163.56137 230.658467 
L 165.1928 230.589009 
L 170.08709 229.486916 
L 171.71852 229.580151 
L 174.98138 228.933783 
L 176.61281 228.405578 
L 183.138529 227.565487 
L 186.401389 227.380284 
L 188.032819 227.133107 
L 192.927108 225.591582 
L 194.558538 225.408999 
L 196.189968 225.454105 
L 199.452828 225.112801 
L 202.715688 224.514331 
L 205.978547 223.999051 
L 207.609977 223.850577 
L 210.872837 223.089559 
L 212.504267 222.571659 
L 215.767127 222.06415 
L 219.029986 221.432174 
L 220.661416 221.253016 
L 222.292846 220.795795 
L 223.924276 220.208178 
L 227.187136 219.804583 
L 230.449995 219.06593 
L 233.712855 218.877705 
L 235.344285 218.51533 
L 238.607145 218.237324 
L 241.870005 218.272212 
L 243.501434 218.126962 
L 245.132864 217.799562 
L 246.764294 217.322853 
L 248.395724 217.117155 
L 250.027154 217.057397 
L 251.658584 216.849857 
L 254.921444 216.096812 
L 259.815733 215.075203 
L 261.447163 214.522444 
L 263.078593 214.167956 
L 267.972883 214.407591 
L 269.604312 214.314529 
L 272.867172 213.859927 
L 274.498602 214.696536 
L 276.130032 214.494206 
L 277.761462 213.718017 
L 279.392892 213.080112 
L 281.024322 212.787196 
L 282.655751 212.98207 
L 284.287181 213.583332 
L 285.918611 213.055415 
L 287.550041 211.959857 
L 290.812901 210.371585 
L 292.444331 209.745252 
L 294.075761 209.331784 
L 297.33862 208.785213 
L 298.97005 207.953585 
L 300.60148 206.838338 
L 302.23291 206.02542 
L 305.49577 204.052149 
L 307.1272 203.278638 
L 308.75863 202.748216 
L 312.021489 201.86607 
L 313.652919 201.096502 
L 315.284349 200.53151 
L 318.547209 199.940582 
L 321.810069 198.985063 
L 323.441498 198.151333 
L 328.335788 196.34775 
L 329.967218 196.029675 
L 333.230078 196.074177 
L 334.861508 195.569 
L 338.124367 193.896532 
L 341.387227 193.813401 
L 343.018657 193.312253 
L 344.650087 192.672621 
L 346.281517 192.482208 
L 347.912947 192.729414 
L 349.544376 192.460504 
L 351.175806 191.843613 
L 352.807236 191.557029 
L 354.438666 191.420962 
L 362.595815 189.996967 
L 369.121535 189.454542 
L 370.752965 189.203507 
L 372.384395 188.83788 
L 374.015825 188.668566 
L 377.278684 188.685924 
L 378.910114 189.26836 
L 380.541544 189.255723 
L 382.172974 188.421101 
L 383.804404 187.875222 
L 385.435834 187.96768 
L 387.067264 187.748568 
L 388.698693 187.66417 
L 390.330123 186.651456 
L 391.961553 180.159798 
L 393.592983 167.184256 
L 395.224413 148.568029 
L 398.487273 102.536941 
L 398.487273 102.536941 
" clip-path="url(#pa44280824d)" style="fill: none; stroke: #1f77b4; stroke-linecap: square"/>
   </g>
   <g id="line2d_26">
    <path d="M 73.832727 263.878001 
L 75.464157 258.614342 
L 78.727017 243.699754 
L 80.358447 239.274373 
L 81.989877 238.447148 
L 83.621307 239.409864 
L 85.252736 240.139651 
L 86.884166 240.483257 
L 88.515596 242.379989 
L 90.147026 240.500845 
L 91.778456 238.258204 
L 93.409886 236.999521 
L 95.041316 236.835647 
L 96.672746 237.263076 
L 98.304175 236.74958 
L 99.935605 236.635045 
L 101.567035 236.136805 
L 103.198465 236.251254 
L 104.829895 236.017663 
L 106.461325 235.421784 
L 108.092755 235.00587 
L 109.724185 235.00302 
L 111.355614 235.366546 
L 112.987044 234.987418 
L 114.618474 234.889751 
L 116.249904 234.534054 
L 117.881334 233.949056 
L 119.512764 233.644942 
L 122.775624 233.995745 
L 124.407053 233.582421 
L 126.038483 232.892271 
L 129.301343 231.7468 
L 130.932773 231.576882 
L 132.564203 231.627601 
L 134.195633 231.27297 
L 135.827063 231.245969 
L 137.458492 230.578675 
L 139.089922 230.52312 
L 140.721352 230.28144 
L 142.352782 230.156254 
L 143.984212 229.782394 
L 145.615642 229.173649 
L 147.247072 229.185451 
L 148.878502 228.961359 
L 150.509931 228.870168 
L 153.772791 227.937648 
L 157.035651 227.108812 
L 158.667081 226.62626 
L 160.298511 226.025488 
L 163.56137 226.006202 
L 166.82423 225.048581 
L 168.45566 224.804916 
L 173.34995 224.631976 
L 174.98138 224.079217 
L 181.507099 223.701903 
L 183.138529 223.37335 
L 184.769959 222.837431 
L 186.401389 222.508763 
L 188.032819 221.725005 
L 189.664249 221.443055 
L 194.558538 221.423136 
L 196.189968 221.085804 
L 197.821398 220.968908 
L 199.452828 220.485867 
L 201.084258 220.415286 
L 202.715688 220.083999 
L 204.347117 219.516934 
L 205.978547 219.153465 
L 209.241407 219.328622 
L 212.504267 218.376183 
L 215.767127 218.082432 
L 217.398556 217.770287 
L 220.661416 216.972424 
L 222.292846 216.732184 
L 223.924276 216.757083 
L 227.187136 216.29586 
L 230.449995 216.14307 
L 232.081425 215.835358 
L 233.712855 215.400099 
L 236.975715 214.956407 
L 238.607145 214.527308 
L 241.870005 214.173454 
L 243.501434 214.162861 
L 246.764294 214.728516 
L 248.395724 214.479007 
L 251.658584 213.103313 
L 253.290014 212.72692 
L 254.921444 212.590508 
L 256.552873 212.32085 
L 258.184303 211.885246 
L 259.815733 211.882454 
L 261.447163 212.255939 
L 263.078593 213.079162 
L 264.710023 213.666435 
L 266.341453 213.35783 
L 269.604312 211.430068 
L 271.235742 210.79815 
L 272.867172 210.383675 
L 274.498602 210.488251 
L 276.130032 210.29991 
L 279.392892 209.035989 
L 281.024322 208.659135 
L 284.287181 208.138327 
L 285.918611 207.392191 
L 287.550041 206.411168 
L 289.181471 205.965547 
L 290.812901 205.648423 
L 292.444331 204.991376 
L 294.075761 204.053934 
L 295.70719 203.299766 
L 297.33862 203.02271 
L 298.97005 202.340476 
L 300.60148 201.874561 
L 302.23291 200.925318 
L 303.86434 200.298265 
L 307.1272 199.619341 
L 308.75863 199.061861 
L 310.390059 198.055134 
L 312.021489 197.696587 
L 313.652919 197.615471 
L 318.547209 196.736232 
L 320.178639 196.738334 
L 323.441498 196.993801 
L 325.072928 195.873344 
L 328.335788 195.29062 
L 329.967218 194.756398 
L 333.230078 193.195386 
L 336.492937 192.804773 
L 338.124367 192.299567 
L 339.755797 192.228986 
L 341.387227 192.030859 
L 349.544376 189.886547 
L 351.175806 190.108595 
L 352.807236 190.129694 
L 354.438666 189.768759 
L 356.070096 189.550281 
L 357.701526 189.674632 
L 359.332956 189.60857 
L 362.595815 188.80708 
L 364.227245 189.24231 
L 365.858675 189.358457 
L 367.490105 188.957683 
L 369.121535 188.297383 
L 370.752965 187.761636 
L 374.015825 187.282135 
L 375.647254 187.454011 
L 377.278684 187.340137 
L 378.910114 187.105367 
L 380.541544 187.009196 
L 383.804404 186.961269 
L 385.435834 186.783694 
L 387.067264 186.818553 
L 388.698693 187.369815 
L 390.330123 188.067161 
L 391.961553 184.740821 
L 393.592983 171.230625 
L 395.224413 145.766411 
L 396.855843 113.316934 
L 398.487273 78.552881 
L 398.487273 78.552881 
" clip-path="url(#pa44280824d)" style="fill: none; stroke: #ff7f0e; stroke-linecap: square"/>
   </g>
   <g id="patch_3">
    <path d="M 57.6 276.48 
L 57.6 41.472 
" style="fill: none; stroke: #000000; stroke-width: 0.8; stroke-linejoin: miter; stroke-linecap: square"/>
   </g>
   <g id="patch_4">
    <path d="M 414.72 276.48 
L 414.72 41.472 
" style="fill: none; stroke: #000000; stroke-width: 0.8; stroke-linejoin: miter; stroke-linecap: square"/>
   </g>
   <g id="patch_5">
    <path d="M 57.6 276.48 
L 414.72 276.48 
" style="fill: none; stroke: #000000; stroke-width: 0.8; stroke-linejoin: miter; stroke-linecap: square"/>
   </g>
   <g id="patch_6">
    <path d="M 57.6 41.472 
L 414.72 41.472 
" style="fill: none; stroke: #000000; stroke-width: 0.8; stroke-linejoin: miter; stroke-linecap: square"/>
   </g>
   <g id="legend_1">
    <g id="patch_7">
     <path d="M 64.6 78.82825 
L 124.934375 78.82825 
Q 126.934375 78.82825 126.934375 76.82825 
L 126.934375 48.472 
Q 126.934375 46.472 124.934375 46.472 
L 64.6 46.472 
Q 62.6 46.472 62.6 48.472 
L 62.6 76.82825 
Q 62.6 78.82825 64.6 78.82825 
z
" style="fill: #ffffff; opacity: 0.8; stroke: #cccccc; stroke-linejoin: miter"/>
    </g>
    <g id="line2d_27">
     <path d="M 66.6 54.570437 
L 76.6 54.570437 
L 86.6 54.570437 
" style="fill: none; stroke: #1f77b4; stroke-linecap: square"/>
    </g>
    <g id="text_15">
     <!-- Down -->
     <g transform="translate(94.6 58.070437) scale(0.1 -0.1)">
      <defs>
       <path id="DejaVuSans-44" d="M 1259 4147 
L 1259 519 
L 2022 519 
Q 2988 519 3436 956 
Q 3884 1394 3884 2338 
Q 3884 3275 3436 3711 
Q 2988 4147 2022 4147 
L 1259 4147 
z
M 628 4666 
L 1925 4666 
Q 3281 4666 3915 4102 
Q 4550 3538 4550 2338 
Q 4550 1131 3912 565 
Q 3275 0 1925 0 
L 628 0 
L 628 4666 
z
" transform="scale(0.015625)"/>
       <path id="DejaVuSans-6f" d="M 1959 3097 
Q 1497 3097 1228 2736 
Q 959 2375 959 1747 
Q 959 1119 1226 758 
Q 1494 397 1959 397 
Q 2419 397 2687 759 
Q 2956 1122 2956 1747 
Q 2956 2369 2687 2733 
Q 2419 3097 1959 3097 
z
M 1959 3584 
Q 2709 3584 3137 3096 
Q 3566 2609 3566 1747 
Q 3566 888 3137 398 
Q 2709 -91 1959 -91 
Q 1206 -91 779 398 
Q 353 888 353 1747 
Q 353 2609 779 3096 
Q 1206 3584 1959 3584 
z
" transform="scale(0.015625)"/>
       <path id="DejaVuSans-6e" d="M 3513 2113 
L 3513 0 
L 2938 0 
L 2938 2094 
Q 2938 2591 2744 2837 
Q 2550 3084 2163 3084 
Q 1697 3084 1428 2787 
Q 1159 2491 1159 1978 
L 1159 0 
L 581 0 
L 581 3500 
L 1159 3500 
L 1159 2956 
Q 1366 3272 1645 3428 
Q 1925 3584 2291 3584 
Q 2894 3584 3203 3211 
Q 3513 2838 3513 2113 
z
" transform="scale(0.015625)"/>
      </defs>
      <use xlink:href="#DejaVuSans-44"/>
      <use xlink:href="#DejaVuSans-6f" x="77.001953"/>
      <use xlink:href="#DejaVuSans-77" x="138.183594"/>
      <use xlink:href="#DejaVuSans-6e" x="219.970703"/>
     </g>
    </g>
    <g id="line2d_28">
     <path d="M 66.6 69.248562 
L 76.6 69.248562 
L 86.6 69.248562 
" style="fill: none; stroke: #ff7f0e; stroke-linecap: square"/>
    </g>
    <g id="text_16">
     <!-- Up -->
     <g transform="translate(94.6 72.748562) scale(0.1 -0.1)">
      <defs>
       <path id="DejaVuSans-55" d="M 556 4666 
L 1191 4666 
L 1191 1831 
Q 1191 1081 1462 751 
Q 1734 422 2344 422 
Q 2950 422 3222 751 
Q 3494 1081 3494 1831 
L 3494 4666 
L 4128 4666 
L 4128 1753 
Q 4128 841 3676 375 
Q 3225 -91 2344 -91 
Q 1459 -91 1007 375 
Q 556 841 556 1753 
L 556 4666 
z
" transform="scale(0.015625)"/>
       <path id="DejaVuSans-70" d="M 1159 525 
L 1159 -1331 
L 581 -1331 
L 581 3500 
L 1159 3500 
L 1159 2969 
Q 1341 3281 1617 3432 
Q 1894 3584 2278 3584 
Q 2916 3584 3314 3078 
Q 3713 2572 3713 1747 
Q 3713 922 3314 415 
Q 2916 -91 2278 -91 
Q 1894 -91 1617 61 
Q 1341 213 1159 525 
z
M 3116 1747 
Q 3116 2381 2855 2742 
Q 2594 3103 2138 3103 
Q 1681 3103 1420 2742 
Q 1159 2381 1159 1747 
Q 1159 1113 1420 752 
Q 1681 391 2138 391 
Q 2594 391 2855 752 
Q 3116 1113 3116 1747 
z
" transform="scale(0.015625)"/>
      </defs>
      <use xlink:href="#DejaVuSans-55"/>
      <use xlink:href="#DejaVuSans-70" x="73.193359"/>
     </g>
    </g>
   </g>
  </g>
 </g>
 <defs>
  <clipPath id="pa44280824d">
   <rect x="57.6" y="41.472" width="357.12" height="235.008"/>
  </clipPath>
 </defs>
</svg>
